<svg width="100%" height="100%" viewBox="0 0 1024 1024" version="1.1" xmlns="http://www.w3.org/2000/svg" xmlns:xlink="http://www.w3.org/1999/xlink" xml:space="preserve" xmlns:serif="http://www.serif.com/" style="fill-rule:evenodd;clip-rule:evenodd;stroke-linecap:round;stroke-linejoin:round;stroke-miterlimit:1.5;">
    <g transform="matrix(1.8187,0,0,2.12559,-396.339,-342.147)">
        <path d="M780.966,281.199C780.966,214.84 718,160.966 640.444,160.966L358.447,160.966C280.891,160.966 217.925,214.84 217.925,281.199L217.925,522.481C217.925,588.84 280.891,642.715 358.447,642.715L640.444,642.715C718,642.715 780.966,588.84 780.966,522.481L780.966,281.199Z" style="fill:rgb(80,39,213);stroke:black;stroke-width:0.51px;"/>
    </g>
    <g transform="matrix(0.837696,2.05176e-16,-2.05176e-16,0.837696,512,512)">
        <g transform="matrix(1,0,0,1,-382,-293)">
            <g transform="matrix(1,0,0,1,-131,-220)">
                <g id="LOGO">
                    <g id="画板">
                        <g id="反色LOGO备份">
                            <path id="填充色LOGO" d="M717.34,221.827C787.993,231.907 848.762,296.061 866.409,377.525C876.263,422.156 883.552,466.578 888.248,510.802C892.994,555.506 894.955,600.015 894.098,644.445C891.981,734.724 833.832,805.547 749.522,805.547C720.494,805.547 704.943,799.658 689.805,785.105L682.206,777.481L680.788,776.142C679.399,774.865 678.079,773.762 676.674,772.712L674.789,771.372C654.57,757.702 611.236,749.395 521.667,748.889L512.854,748.864L504.039,748.889C414.448,749.395 371.029,757.709 350.744,771.39L348.852,772.73C347.434,773.787 346.104,774.897 344.705,776.18L343.277,777.527L335.645,785.175C320.546,799.671 305.043,805.547 276.186,805.547C187.226,805.547 133.798,737.744 131.608,644.333C130.754,600.015 132.714,555.506 137.461,510.802C142.156,466.578 149.445,422.156 159.277,377.628C176.946,296.061 237.715,231.907 308.35,221.829C332.223,218.402 345.965,220.138 359.675,228.118L362.039,229.558L369.753,234.621L371.798,235.878C373.819,237.077 375.806,238.116 378.069,239.137L380.566,240.208C400.798,248.466 437.086,253.58 500.817,254.144L512.854,254.196L525.121,254.142C588.816,253.567 625.056,248.439 645.243,240.167L647.639,239.137C649.902,238.116 651.889,237.077 653.91,235.878L655.955,234.621C656.848,234.053 661.433,230.988 663.669,229.558L666.033,228.118C679.743,220.138 693.484,218.402 717.34,221.827ZM559.806,568.437L559.644,569.673C558.782,578.624 552.197,585.699 543.865,586.624C534.551,587.658 526.179,580.732 524.613,570.963L524.448,569.673C522.569,550.142 496.678,549.677 493.655,568.278L493.475,569.673C492.614,578.624 486.028,585.699 477.697,586.624C468.383,587.658 460.011,580.732 458.445,570.963L458.28,569.673C457.396,560.485 449.746,553.807 441.193,554.757C432.64,555.706 426.423,563.925 427.307,573.113C430.08,601.93 454.074,622.876 480.898,619.897C490.922,618.784 500.03,614.446 507.314,607.859L508.961,606.3C518.902,616.13 532.571,621.507 547.067,619.897C570.062,617.343 588.24,597.816 590.617,573.113C591.501,563.925 585.284,555.706 576.731,554.757C568.567,553.85 561.225,559.894 559.806,568.437ZM696.543,412.503L562.561,412.503C560.904,412.503 559.561,413.846 559.561,415.503L559.561,451.316C559.561,452.973 560.904,454.316 562.561,454.316L647.447,454.317C645.979,459.616 645.191,465.23 645.191,471.042C645.191,476.853 645.979,482.467 647.447,487.767L562.561,487.767C560.904,487.767 559.561,489.11 559.561,490.767L559.561,526.58C559.561,528.237 560.904,529.58 562.561,529.58L696.543,529.58C696.752,529.58 696.957,529.559 697.154,529.518C697.991,529.559 698.835,529.58 699.682,529.58C729.777,529.58 754.174,503.372 754.174,471.042C754.174,438.712 729.777,412.503 699.682,412.503C698.834,412.503 697.99,412.524 697.151,412.565C696.955,412.525 696.752,412.503 696.543,412.503ZM416.515,412.503L274.534,412.503C272.878,412.503 271.534,413.846 271.534,415.503L271.534,451.316C271.534,452.973 272.878,454.316 274.534,454.316L367.205,454.317C365.737,459.616 364.948,465.23 364.948,471.042C364.948,476.853 365.737,482.467 367.205,487.767L274.534,487.767C272.878,487.767 271.534,489.11 271.534,490.767L271.534,526.58C271.534,528.237 272.878,529.58 274.534,529.58L416.515,529.58C416.711,529.58 416.903,529.561 417.089,529.525C417.868,529.562 418.652,529.58 419.44,529.58C449.535,529.58 473.932,503.372 473.932,471.042C473.932,438.712 449.535,412.503 419.44,412.503C418.651,412.503 417.866,412.521 417.085,412.557C416.901,412.522 416.71,412.503 416.515,412.503Z" style="fill:white;fill-rule:nonzero;"/>
                        </g>
                    </g>
                </g>
            </g>
        </g>
    </g>
    <g transform="matrix(1,0,0,1,15,-11)">
        <g transform="matrix(1.18573,0,0,0.968221,-268.058,32.8956)">
            <path d="M1021.69,920.352C1021.69,863.349 983.9,817.07 937.354,817.07L652.212,817.07C605.666,817.07 567.876,863.349 567.876,920.352C567.876,977.355 605.666,1023.63 652.212,1023.63L937.354,1023.63C983.9,1023.63 1021.69,977.355 1021.69,920.352Z" style="fill:rgb(0,150,210);fill-opacity:0;stroke:white;stroke-width:19.25px;stroke-miterlimit:10;"/>
        </g>
        <g transform="matrix(1.1,0,0,1,289.308,89.4747)">
            <text x="172.925px" y="873.757px" style="font-family:'Helvetica-BoldOblique', 'Helvetica';font-weight:700;font-style:italic;font-size:125px;fill:white;">Sharp</text>
        </g>
    </g>
</svg>
